<svg xmlns="http://www.w3.org/2000/svg" xmlns:xlink="http://www.w3.org/1999/xlink" width="500" zoomAndPan="magnify" viewBox="0 0 375 374.999991" height="500" preserveAspectRatio="xMidYMid meet" version="1.0"><defs><clipPath id="id1"><path d="M 139.570312 140.105469 L 238.570312 140.105469 L 238.570312 263.855469 L 139.570312 263.855469 Z M 139.570312 140.105469 " clip-rule="nonzero"/></clipPath></defs><path fill="rgb(54.899597%, 78.42865%, 100%)" d="M 216.464844 129.484375 L 147.390625 129.484375 L 117.050781 181.984375 L 147.390625 234.480469 L 216.464844 234.480469 L 246.800781 181.984375 L 216.464844 129.484375 " fill-opacity="1" fill-rule="nonzero"/><path fill="rgb(78.039551%, 81.568909%, 84.709167%)" d="M 135.613281 199.394531 L 134.382812 197.296875 L 207.324219 124.511719 L 210.652344 124.511719 Z M 203.996094 124.511719 L 200.671875 124.511719 L 131.976562 193.058594 L 133.207031 195.152344 Z M 217.304688 124.511719 L 213.980469 124.511719 L 136.839844 201.488281 L 138.070312 203.582031 Z M 222.269531 126.246094 L 221.246094 124.511719 L 220.632812 124.511719 L 139.246094 205.675781 L 140.476562 207.769531 Z M 224.675781 130.4375 L 223.449219 128.339844 L 141.753906 209.914062 L 142.984375 212.007812 Z M 197.34375 124.511719 L 194.015625 124.511719 L 129.519531 188.820312 L 130.75 190.914062 Z M 227.132812 134.675781 L 225.90625 132.582031 L 144.160156 214.15625 L 145.390625 216.25 Z M 146.925781 141.570312 L 164.019531 124.511719 L 160.695312 124.511719 L 151.480469 133.703125 Z M 238.085938 153.625 L 156.34375 235.199219 L 156.753906 235.964844 L 158.953125 235.964844 L 239.316406 155.769531 Z M 170.675781 124.511719 L 167.347656 124.511719 L 142.367188 149.4375 L 137.8125 157.304688 Z M 177.328125 124.511719 L 174.003906 124.511719 L 133.257812 165.167969 L 128.703125 173.035156 Z M 190.6875 124.511719 L 187.363281 124.511719 L 127.117188 184.628906 L 128.34375 186.726562 Z M 183.984375 124.511719 L 180.65625 124.511719 L 124.660156 180.390625 L 125.886719 182.484375 Z M 156.035156 125.839844 L 157.367188 124.511719 L 156.804688 124.511719 Z M 251.753906 183.199219 L 253.496094 180.238281 L 252.726562 178.910156 L 195.601562 235.964844 L 198.929688 235.964844 Z M 251.5 176.816406 L 250.269531 174.722656 L 188.949219 235.964844 L 192.277344 235.964844 Z M 242.695312 198.933594 L 247.25 191.066406 L 202.257812 235.964844 L 205.585938 235.964844 Z M 233.582031 214.664062 L 238.140625 206.800781 L 208.910156 235.964844 L 212.238281 235.964844 Z M 224.472656 230.398438 L 229.027344 222.53125 L 215.566406 235.964844 L 218.894531 235.964844 Z M 249.09375 172.574219 L 247.863281 170.480469 L 182.242188 235.964844 L 185.570312 235.964844 Z M 246.636719 168.386719 L 245.40625 166.292969 L 175.589844 235.964844 L 178.917969 235.964844 Z M 234.453125 147.292969 L 233.226562 145.199219 L 151.480469 226.769531 L 152.707031 228.867188 Z M 231.996094 143.101562 L 230.769531 141.007812 L 149.023438 222.582031 L 150.25 224.675781 Z M 236.859375 151.53125 L 235.628906 149.4375 L 153.9375 230.960938 L 155.164062 233.054688 Z M 244.179688 164.148438 L 242.949219 162.054688 L 168.933594 235.964844 L 172.261719 235.964844 Z M 229.589844 138.863281 L 228.363281 136.769531 L 146.617188 218.34375 L 147.847656 220.4375 Z M 241.773438 159.960938 L 240.542969 157.867188 L 162.28125 235.964844 L 165.609375 235.964844 Z M 241.773438 159.960938 " fill-opacity="1" fill-rule="nonzero"/><g clip-path="url(#id1)"><path fill="rgb(0%, 0%, 0%)" d="M 232.789062 263.726562 C 232.140625 263.601562 231.433594 263.269531 231.304688 263.03125 C 231.117188 262.679688 231.472656 262.214844 232.183594 261.875 C 232.558594 261.691406 232.664062 261.609375 232.621094 261.515625 C 232.125 260.429688 229.582031 251.28125 228.65625 247.257812 C 227.851562 243.761719 226.988281 238.875 226.210938 233.464844 C 225.429688 228.015625 225.179688 226.480469 224.375 222.332031 C 224.089844 220.851562 223.828125 219.449219 223.796875 219.214844 C 223.765625 218.980469 223.714844 218.816406 223.679688 218.851562 C 223.648438 218.890625 223.085938 220.347656 222.433594 222.09375 C 221.78125 223.835938 220.816406 226.382812 220.289062 227.75 C 218.453125 232.515625 217.351562 235.609375 216.664062 237.949219 C 216.382812 238.898438 216.378906 238.945312 216.253906 241.480469 C 216.09375 244.753906 215.914062 246.8125 215.417969 251.152344 C 214.925781 255.464844 214.800781 256.738281 214.683594 258.578125 C 214.589844 260.121094 214.5 260.425781 214.144531 260.425781 C 214.054688 260.425781 213.894531 260.503906 213.792969 260.601562 C 213.546875 260.832031 212.84375 261.140625 211.96875 261.402344 C 211.394531 261.574219 211.066406 261.617188 210.023438 261.648438 C 208.648438 261.691406 207.945312 261.574219 207.785156 261.273438 C 207.414062 260.578125 208.246094 259.792969 209.796875 259.363281 C 210.445312 259.183594 213.066406 259.160156 213.632812 259.328125 C 213.824219 259.386719 213.992188 259.417969 214.007812 259.40625 C 214.023438 259.390625 214.074219 258.835938 214.125 258.175781 C 214.246094 256.429688 214.40625 254.855469 214.808594 251.339844 C 215.351562 246.5625 215.605469 243.625 215.84375 239.109375 C 215.859375 238.824219 215.96875 238.28125 216.089844 237.90625 C 217.367188 233.886719 217.90625 232.421875 222.195312 221.367188 C 222.664062 220.152344 223.144531 218.902344 223.261719 218.585938 L 223.476562 218.015625 L 223.171875 216.707031 C 222.816406 215.171875 222.480469 213.09375 222.199219 210.691406 C 221.882812 207.992188 221.851562 207.644531 221.949219 207.566406 C 222.058594 207.484375 222.476562 207.40625 222.476562 207.472656 C 222.480469 207.617188 222.894531 211.191406 223 211.976562 C 223.324219 214.371094 223.832031 217.203125 224 217.511719 C 224.035156 217.578125 224.101562 217.945312 224.148438 218.324219 C 224.195312 218.703125 224.449219 220.003906 224.714844 221.210938 C 225.539062 224.972656 225.996094 227.515625 226.6875 232.246094 C 228.230469 242.757812 228.957031 246.363281 231.058594 253.976562 C 231.585938 255.886719 232.144531 257.960938 232.308594 258.578125 C 232.464844 259.199219 232.699219 260.101562 232.828125 260.585938 L 233.0625 261.46875 L 233.328125 261.449219 C 235.414062 261.292969 237.007812 261.363281 237.484375 261.628906 C 237.597656 261.691406 237.816406 261.800781 237.96875 261.875 C 238.394531 262.074219 238.53125 262.230469 238.53125 262.511719 C 238.53125 263.035156 238.027344 263.375 236.847656 263.636719 C 236.023438 263.816406 233.554688 263.871094 232.789062 263.726562 Z M 236.285156 263.261719 C 236.660156 263.214844 237.195312 263.105469 237.472656 263.019531 C 238.265625 262.777344 238.234375 262.515625 237.382812 262.242188 C 236.234375 261.875 234.625 261.691406 233.777344 261.832031 C 233.445312 261.886719 233.15625 261.984375 233.105469 262.054688 C 233.046875 262.136719 233 262.148438 232.960938 262.085938 C 232.867188 261.929688 231.84375 262.371094 231.753906 262.609375 C 231.726562 262.671875 231.820312 262.785156 231.96875 262.878906 C 232.765625 263.371094 234.339844 263.507812 236.285156 263.261719 Z M 211.4375 261.035156 C 212.488281 260.820312 213.4375 260.433594 213.550781 260.179688 C 213.601562 260.070312 213.644531 259.964844 213.644531 259.945312 C 213.644531 259.863281 212.699219 259.726562 211.878906 259.6875 C 210.847656 259.640625 209.90625 259.765625 209.125 260.0625 C 208.628906 260.25 208.183594 260.574219 208.183594 260.75 C 208.183594 260.875 208.4375 261.027344 208.789062 261.113281 C 209.273438 261.230469 210.703125 261.1875 211.4375 261.035156 Z M 141.953125 260.148438 L 140.148438 260.105469 L 140.121094 259.742188 C 140.105469 259.546875 140.136719 259.113281 140.1875 258.78125 C 140.300781 258.070312 141.128906 254.339844 141.992188 250.671875 C 142.332031 249.238281 142.835938 247.085938 143.117188 245.894531 C 144.855469 238.515625 145.277344 236.703125 145.648438 234.976562 C 145.875 233.917969 146.3125 231.929688 146.621094 230.5625 C 146.925781 229.191406 147.414062 226.96875 147.703125 225.625 C 147.992188 224.277344 148.328125 222.863281 148.453125 222.476562 C 148.574219 222.09375 148.65625 221.757812 148.632812 221.734375 C 148.609375 221.710938 146.65625 221.691406 144.289062 221.691406 L 139.992188 221.691406 L 139.808594 221.476562 C 139.652344 221.296875 139.625 221.171875 139.625 220.671875 C 139.625 220.082031 139.710938 219.765625 139.875 219.765625 C 139.917969 219.765625 140.011719 219.710938 140.078125 219.644531 C 140.160156 219.558594 140.367188 219.523438 140.757812 219.523438 C 141.132812 219.523438 141.324219 219.492188 141.347656 219.421875 C 141.367188 219.367188 141.394531 205.367188 141.414062 188.308594 C 141.4375 164.964844 141.472656 157.273438 141.539062 157.203125 C 141.609375 157.136719 144.558594 157.101562 153.050781 157.066406 L 164.472656 157.027344 L 164.511719 140.542969 L 165.011719 140.125 L 166.75 140.144531 C 168.25 140.164062 168.480469 140.183594 168.445312 140.285156 C 168.421875 140.351562 168.386719 144.15625 168.367188 148.734375 L 168.324219 157.0625 L 180.710938 157.085938 L 193.097656 157.105469 L 193.09375 166.089844 C 193.09375 171.03125 193.082031 175.082031 193.070312 175.089844 C 193.0625 175.097656 192.917969 175.089844 192.75 175.066406 L 192.449219 175.03125 L 192.449219 157.625 L 171.65625 157.605469 C 160.21875 157.597656 148.851562 157.589844 146.390625 157.585938 L 141.914062 157.585938 L 141.941406 188.332031 C 141.957031 205.246094 141.988281 219.109375 142.011719 219.148438 C 142.03125 219.1875 142.6875 219.195312 143.46875 219.171875 C 144.246094 219.152344 155.59375 219.128906 168.6875 219.125 L 192.488281 219.117188 L 192.464844 199.398438 L 192.4375 179.675781 L 192.691406 179.890625 C 192.832031 180.003906 192.984375 180.101562 193.03125 180.101562 C 193.09375 180.101562 193.105469 185.710938 193.074219 199.597656 C 193.046875 210.320312 193.046875 219.191406 193.070312 219.308594 L 193.113281 219.519531 L 194.089844 219.519531 C 194.636719 219.519531 195.105469 219.484375 195.148438 219.4375 C 195.203125 219.386719 195.28125 219.394531 195.382812 219.46875 C 195.515625 219.570312 195.53125 219.675781 195.511719 220.335938 C 195.503906 220.746094 195.476562 221.140625 195.457031 221.207031 C 195.4375 221.273438 195.25 221.40625 195.039062 221.507812 L 194.660156 221.691406 L 190.09375 221.6875 C 186.34375 221.6875 185.535156 221.707031 185.570312 221.792969 C 185.800781 222.398438 186.101562 223.582031 186.539062 225.625 C 186.832031 226.96875 187.316406 229.1875 187.621094 230.558594 C 187.929688 231.925781 188.367188 233.914062 188.59375 234.972656 C 188.96875 236.703125 189.441406 238.738281 191.125 245.890625 C 193.050781 254.070312 193.8125 257.40625 194.019531 258.574219 C 194.148438 259.277344 194.171875 260.027344 194.074219 260.089844 C 194.039062 260.109375 193.144531 260.136719 192.085938 260.148438 L 190.160156 260.167969 L 189.101562 255.359375 C 186.566406 243.878906 186.121094 241.890625 185.175781 237.863281 C 183.863281 232.28125 182.714844 227.671875 182.003906 225.140625 C 181.6875 224.011719 181.351562 222.785156 181.253906 222.410156 L 181.078125 221.726562 L 169.046875 221.726562 L 169.007812 237.992188 C 168.976562 251.617188 168.949219 254.277344 168.859375 254.386719 C 168.761719 254.503906 168.515625 254.523438 166.832031 254.523438 L 164.914062 254.523438 L 164.875 221.726562 L 153.164062 221.726562 L 152.992188 222.410156 C 152.894531 222.785156 152.554688 224.011719 152.238281 225.140625 C 151.527344 227.671875 150.378906 232.28125 149.070312 237.863281 C 148.121094 241.90625 147.617188 244.148438 145.140625 255.363281 C 144.171875 259.753906 144.066406 260.179688 143.921875 260.183594 C 143.832031 260.183594 142.949219 260.167969 141.953125 260.144531 Z M 143.9375 259.183594 C 143.992188 258.9375 144.273438 257.566406 144.566406 256.128906 C 147.449219 241.9375 151.136719 226.636719 152.710938 222.328125 C 152.796875 222.089844 152.871094 221.847656 152.871094 221.789062 C 152.871094 221.714844 152.5625 221.691406 151.546875 221.691406 C 150.515625 221.691406 150.222656 221.714844 150.222656 221.796875 C 150.222656 221.851562 149.914062 222.144531 149.539062 222.441406 C 149.160156 222.742188 148.800781 223.066406 148.742188 223.160156 C 148.679688 223.257812 148.535156 223.824219 148.414062 224.421875 C 148.296875 225.015625 147.914062 226.804688 147.5625 228.394531 C 147.210938 229.980469 146.65625 232.53125 146.328125 234.054688 C 145.734375 236.835938 144.066406 244.109375 142.945312 248.824219 C 142.617188 250.214844 142.039062 252.707031 141.664062 254.363281 C 140.878906 257.851562 140.628906 258.863281 140.464844 259.285156 C 140.398438 259.449219 140.347656 259.605469 140.347656 259.625 C 140.347656 259.648438 141.132812 259.65625 142.09375 259.644531 L 143.839844 259.621094 Z M 141.488281 259.183594 C 141.003906 259.113281 140.917969 259.0625 141.054688 258.925781 C 141.125 258.855469 141.359375 258.851562 142.027344 258.914062 C 143.023438 259.015625 143.28125 259.105469 142.796875 259.195312 C 142.402344 259.265625 142.046875 259.261719 141.488281 259.179688 Z M 144.125 256.96875 C 144.128906 256.875 144.148438 256.855469 144.175781 256.921875 C 144.199219 256.976562 144.195312 257.046875 144.167969 257.074219 C 144.140625 257.101562 144.121094 257.054688 144.125 256.96875 Z M 144.203125 256.398438 C 144.199219 255.460938 144.464844 254.363281 144.652344 254.546875 C 144.742188 254.636719 144.550781 255.859375 144.363281 256.375 L 144.207031 256.816406 Z M 143.316406 248.390625 C 143.316406 248.320312 143.351562 248.265625 143.398438 248.265625 C 143.441406 248.265625 143.476562 248.300781 143.476562 248.339844 C 143.476562 248.382812 143.441406 248.4375 143.398438 248.464844 C 143.351562 248.492188 143.316406 248.457031 143.316406 248.390625 Z M 143.960938 245.558594 C 143.960938 245.511719 144.207031 244.464844 144.515625 243.238281 C 144.816406 242.007812 145.152344 240.648438 145.253906 240.21875 C 145.4375 239.460938 145.566406 239.222656 145.566406 239.632812 C 145.566406 239.890625 145.21875 241.53125 144.976562 242.40625 C 144.285156 244.921875 143.960938 245.929688 143.960938 245.558594 Z M 147.035156 232.195312 C 147.285156 231.472656 148.515625 226.417969 148.554688 225.953125 C 148.589844 225.492188 148.777344 225.550781 148.777344 226.019531 C 148.777344 226.695312 147.355469 231.972656 147.113281 232.210938 C 147 232.316406 146.992188 232.316406 147.035156 232.195312 Z M 149.578125 230.742188 C 149.578125 230.511719 150.765625 226.664062 150.867188 226.554688 C 151.039062 226.378906 151.023438 226.625 150.824219 227.359375 C 150.441406 228.769531 149.578125 231.109375 149.578125 230.742188 Z M 148.804688 224.945312 C 148.832031 224.871094 148.859375 224.796875 148.859375 224.777344 C 148.859375 224.761719 149.40625 224.304688 150.082031 223.765625 C 150.753906 223.226562 151.460938 222.628906 151.648438 222.441406 C 151.972656 222.117188 152.308594 221.984375 152.308594 222.179688 C 152.308594 222.222656 152.207031 222.355469 152.085938 222.464844 C 151.710938 222.820312 149.125 224.882812 148.933594 224.984375 C 148.773438 225.070312 148.757812 225.066406 148.804688 224.945312 Z M 151.183594 224.191406 C 151.183594 224.089844 151.980469 223.378906 152.09375 223.378906 C 152.144531 223.378906 152.023438 223.542969 151.824219 223.746094 C 151.441406 224.136719 151.183594 224.316406 151.183594 224.191406 Z M 148.695312 224.019531 C 148.695312 223.976562 148.921875 223.769531 149.195312 223.558594 C 149.46875 223.347656 150.066406 222.875 150.527344 222.507812 C 151.332031 221.859375 151.730469 221.664062 151.175781 222.183594 C 150.777344 222.5625 148.835938 224.101562 148.761719 224.101562 C 148.726562 224.101562 148.695312 224.0625 148.695312 224.019531 Z M 193.871094 259.554688 C 193.652344 258.980469 192.9375 256.136719 192.726562 254.984375 C 192.695312 254.816406 192.65625 254.695312 192.636719 254.714844 C 192.617188 254.734375 192.652344 255.042969 192.714844 255.398438 C 192.777344 255.757812 192.808594 256.070312 192.785156 256.089844 C 192.679688 256.195312 192.625 256.101562 192.574219 255.710938 C 192.542969 255.480469 192.375 254.730469 192.195312 254.046875 C 192.019531 253.359375 191.734375 252.113281 191.5625 251.273438 C 191.390625 250.4375 191.179688 249.417969 191.09375 249.011719 C 191.007812 248.605469 190.957031 248.136719 190.976562 247.96875 C 191.003906 247.753906 190.683594 246.226562 189.890625 242.804688 C 188.703125 237.675781 188.308594 235.925781 187.601562 232.609375 C 186.972656 229.667969 186.394531 227.132812 186.371094 227.207031 C 186.363281 227.242188 186.4375 227.722656 186.539062 228.273438 C 186.648438 228.839844 186.699219 229.3125 186.660156 229.351562 C 186.625 229.394531 186.578125 229.414062 186.5625 229.394531 C 186.550781 229.371094 186.4375 228.785156 186.316406 228.085938 C 186.191406 227.382812 185.988281 226.507812 185.863281 226.136719 C 185.738281 225.769531 185.539062 225.023438 185.421875 224.480469 C 185.300781 223.941406 185.179688 223.46875 185.148438 223.433594 C 185.117188 223.402344 185.046875 223.511719 184.996094 223.683594 C 184.867188 224.113281 184.132812 225.679688 184.023438 225.742188 C 183.902344 225.820312 183.902344 225.820312 184.332031 224.859375 C 184.546875 224.375 184.765625 223.835938 184.820312 223.660156 C 184.875 223.484375 184.96875 223.300781 185.023438 223.257812 C 185.101562 223.191406 185.109375 223.066406 185.046875 222.707031 C 184.976562 222.308594 184.984375 222.222656 185.105469 222.09375 C 185.183594 222.007812 185.222656 221.882812 185.195312 221.816406 C 185.15625 221.710938 184.886719 221.691406 183.257812 221.691406 C 181.792969 221.691406 181.371094 221.714844 181.371094 221.792969 C 181.371094 221.847656 181.441406 222.089844 181.53125 222.328125 C 182.542969 225.101562 184.945312 234.425781 186.953125 243.386719 C 187.214844 244.535156 187.269531 244.707031 187.359375 244.589844 C 187.429688 244.496094 187.488281 244.476562 187.546875 244.53125 C 187.640625 244.628906 188.34375 247.605469 188.585938 248.945312 C 189.25 252.601562 189.308594 253.046875 189.148438 253.097656 C 189.089844 253.117188 189.113281 253.382812 189.234375 253.96875 C 189.332031 254.429688 189.621094 255.867188 189.882812 257.164062 C 190.148438 258.460938 190.382812 259.550781 190.410156 259.589844 C 190.433594 259.632812 191.230469 259.664062 192.183594 259.664062 C 193.621094 259.664062 193.90625 259.644531 193.871094 259.554688 Z M 193.136719 259.269531 C 193.109375 259.226562 193.125 259.171875 193.164062 259.148438 C 193.207031 259.121094 193.261719 259.136719 193.289062 259.175781 C 193.316406 259.21875 193.300781 259.273438 193.261719 259.296875 C 193.21875 259.324219 193.164062 259.3125 193.136719 259.269531 Z M 190.339844 258.085938 C 190.308594 258.058594 190.28125 257.957031 190.28125 257.863281 C 190.28125 257.773438 190.203125 257.480469 190.105469 257.210938 C 189.929688 256.710938 189.945312 256.453125 190.15625 256.453125 C 190.300781 256.453125 190.347656 256.609375 190.4375 257.417969 C 190.5 257.980469 190.464844 258.214844 190.339844 258.085938 Z M 185.0625 232.777344 C 185.0625 232.472656 184.574219 230.714844 184.300781 230.042969 C 183.890625 229.019531 182.039062 223.398438 181.925781 222.808594 C 181.871094 222.527344 181.769531 222.25 181.699219 222.195312 C 181.585938 222.101562 181.585938 222.082031 181.726562 221.972656 C 181.847656 221.878906 182.125 221.851562 182.972656 221.855469 C 184.152344 221.855469 184.726562 221.9375 184.828125 222.101562 C 184.863281 222.160156 184.84375 222.324219 184.777344 222.476562 C 184.671875 222.734375 184.675781 222.753906 184.824219 222.792969 C 185.046875 222.851562 185.023438 222.976562 184.785156 222.976562 C 184.621094 222.976562 184.53125 223.082031 184.265625 223.558594 C 184.089844 223.878906 183.894531 224.214844 183.824219 224.300781 C 183.59375 224.613281 183.683594 224.207031 183.980469 223.617188 C 184.304688 222.972656 184.363281 223.015625 183.25 223.152344 C 182.765625 223.210938 182.503906 223.277344 182.527344 223.332031 C 182.546875 223.378906 182.695312 223.804688 182.855469 224.28125 C 183.015625 224.757812 183.175781 225.144531 183.207031 225.144531 C 183.242188 225.144531 183.328125 225.015625 183.40625 224.855469 C 183.484375 224.691406 183.566406 224.582031 183.59375 224.605469 C 183.617188 224.632812 183.542969 224.824219 183.429688 225.027344 C 183.285156 225.285156 183.242188 225.441406 183.289062 225.535156 C 183.441406 225.816406 184.359375 228.917969 184.539062 229.761719 C 184.648438 230.246094 184.84375 231.070312 184.976562 231.59375 C 185.234375 232.585938 185.28125 232.929688 185.144531 232.929688 C 185.101562 232.929688 185.0625 232.859375 185.0625 232.777344 Z M 183.566406 222.765625 C 184.394531 222.710938 184.4375 222.703125 184.511719 222.511719 C 184.554688 222.402344 184.574219 222.300781 184.554688 222.28125 C 184.539062 222.265625 183.980469 222.257812 183.320312 222.273438 L 182.109375 222.292969 L 182.234375 222.601562 C 182.335938 222.855469 182.386719 222.902344 182.527344 222.863281 C 182.621094 222.839844 183.089844 222.792969 183.566406 222.765625 Z M 192.585938 254.347656 C 192.558594 254.289062 192.542969 254.335938 192.542969 254.445312 C 192.542969 254.558594 192.558594 254.601562 192.585938 254.546875 C 192.605469 254.492188 192.605469 254.402344 192.585938 254.347656 Z M 192.503906 254.027344 C 192.480469 253.964844 192.460938 253.984375 192.457031 254.078125 C 192.453125 254.164062 192.472656 254.210938 192.5 254.183594 C 192.523438 254.15625 192.527344 254.089844 192.503906 254.03125 Z M 168.507812 238.453125 C 168.515625 229.898438 168.5 222.898438 168.46875 222.902344 C 168.371094 222.910156 166.59375 225.019531 166.277344 225.496094 C 165.761719 226.28125 165.785156 226.253906 165.828125 226.042969 C 165.914062 225.613281 166.59375 224.617188 167.492188 223.613281 C 168.019531 223.019531 168.46875 222.460938 168.484375 222.375 C 168.503906 222.285156 168.535156 222.097656 168.558594 221.953125 L 168.601562 221.691406 L 167.375 221.691406 L 166.347656 222.710938 L 165.3125 223.730469 L 165.324219 229.796875 C 165.339844 236.261719 165.429688 236.988281 165.539062 231.445312 C 165.574219 229.535156 165.625 228.484375 165.675781 228.496094 C 165.792969 228.527344 165.820312 233.03125 165.71875 235.058594 C 165.570312 237.984375 165.484375 239.042969 165.398438 239.148438 C 165.34375 239.214844 165.316406 241.476562 165.316406 246.183594 L 165.316406 253.121094 L 165.59375 253.3125 C 165.953125 253.554688 165.953125 253.667969 165.59375 253.597656 C 165.324219 253.546875 165.3125 253.554688 165.3125 253.796875 L 165.3125 254.050781 L 168.488281 254.003906 Z M 166.4375 253.582031 C 166.4375 253.480469 167.066406 253.203125 167.136719 253.273438 C 167.167969 253.304688 167.140625 253.375 167.078125 253.4375 C 166.933594 253.570312 166.4375 253.6875 166.4375 253.582031 Z M 165.554688 251.675781 C 165.554688 251.523438 166.644531 248.910156 166.707031 248.910156 C 166.820312 248.910156 166.695312 249.289062 166.183594 250.472656 C 165.730469 251.515625 165.554688 251.855469 165.554688 251.675781 Z M 165.394531 249.902344 C 165.394531 249.878906 165.464844 249.757812 165.546875 249.640625 C 165.628906 249.523438 166.058594 248.777344 166.496094 247.984375 C 167.636719 245.929688 168.070312 245.21875 168.183594 245.214844 C 168.238281 245.214844 168.285156 245.238281 168.285156 245.265625 C 168.285156 245.359375 167.148438 247.324219 166.324219 248.644531 C 165.613281 249.785156 165.394531 250.085938 165.394531 249.902344 Z M 167.773438 240.742188 C 167.683594 240.652344 167.71875 240.558594 167.84375 240.558594 C 167.910156 240.558594 167.964844 240.59375 167.964844 240.632812 C 167.964844 240.734375 167.835938 240.808594 167.773438 240.742188 Z M 167.921875 228.320312 C 167.921875 225.484375 167.949219 224.945312 168.082031 225.074219 C 168.265625 225.257812 168.199219 231.488281 168.011719 231.488281 C 167.949219 231.488281 167.921875 230.652344 167.921875 228.320312 Z M 165.796875 224.566406 C 165.796875 224.359375 166.449219 223.550781 167.140625 222.894531 C 167.96875 222.113281 168.238281 221.910156 168.191406 222.125 C 168.160156 222.269531 165.796875 224.679688 165.796875 224.566406 Z M 188.882812 251.707031 C 188.683594 250.648438 188.191406 248.644531 188.144531 248.6875 C 188.132812 248.703125 188.328125 249.6875 188.578125 250.875 C 189.046875 253.085938 189.25 253.632812 188.882812 251.707031 Z M 186.324219 226.808594 C 186.296875 226.753906 186.28125 226.800781 186.28125 226.910156 C 186.28125 227.019531 186.296875 227.066406 186.324219 227.011719 C 186.34375 226.953125 186.34375 226.863281 186.324219 226.808594 Z M 186.242188 226.496094 C 186.214844 226.429688 186.199219 226.449219 186.195312 226.542969 C 186.191406 226.628906 186.210938 226.675781 186.238281 226.648438 C 186.261719 226.621094 186.265625 226.550781 186.242188 226.496094 Z M 166.214844 221.710938 C 165.835938 221.695312 165.480469 221.699219 165.421875 221.726562 C 165.34375 221.753906 165.3125 221.976562 165.3125 222.578125 L 165.3125 223.390625 L 166.109375 222.5625 L 166.898438 221.730469 Z M 149.976562 221.71875 C 150 221.699219 149.804688 221.695312 149.542969 221.710938 C 149.035156 221.734375 149.015625 221.757812 148.828125 222.523438 C 148.769531 222.746094 148.925781 222.636719 149.976562 221.71875 Z M 167.578125 221.210938 L 195.019531 221.210938 L 195.019531 219.925781 L 184.324219 219.972656 C 178.4375 219.996094 166.082031 220.011719 156.863281 220.011719 L 140.105469 220.011719 L 140.105469 220.394531 C 140.101562 220.601562 140.070312 220.914062 140.03125 221.085938 C 139.976562 221.316406 139.980469 221.371094 140.046875 221.308594 C 140.113281 221.238281 147.398438 221.214844 167.578125 221.214844 Z M 167.882812 148.839844 L 167.882812 140.609375 L 165.074219 140.609375 L 165.074219 148.199219 C 165.074219 154.253906 165.09375 155.78125 165.175781 155.730469 C 165.230469 155.695312 165.417969 155.574219 165.59375 155.457031 C 166.121094 155.105469 167.488281 154.398438 167.535156 154.445312 C 167.65625 154.5625 167.425781 154.746094 166.429688 155.308594 C 165.835938 155.640625 165.292969 155.9375 165.214844 155.96875 C 165.101562 156.007812 165.074219 156.117188 165.074219 156.542969 L 165.074219 157.066406 L 167.882812 157.066406 Z M 167.121094 156.476562 C 167.4375 156.191406 167.640625 156.109375 167.640625 156.265625 C 167.640625 156.386719 167.339844 156.667969 167.207031 156.667969 C 167.144531 156.667969 167.027344 156.6875 166.945312 156.714844 C 166.863281 156.742188 166.945312 156.632812 167.121094 156.476562 Z M 165.394531 156.59375 C 165.394531 156.492188 166.109375 155.988281 166.90625 155.527344 C 167.601562 155.128906 167.722656 155.082031 167.722656 155.226562 C 167.722656 155.460938 167.496094 155.628906 166.605469 156.054688 C 166.074219 156.308594 165.617188 156.550781 165.589844 156.59375 C 165.535156 156.6875 165.394531 156.6875 165.394531 156.59375 Z M 165.265625 142.339844 C 165.320312 141.496094 165.386719 141.292969 165.59375 141.363281 C 165.722656 141.402344 165.671875 142.261719 165.515625 142.679688 C 165.261719 143.355469 165.210938 143.28125 165.265625 142.339844 Z M 166.136719 141.445312 C 166.082031 141.417969 166.039062 141.347656 166.039062 141.285156 C 166.039062 141.199219 166.1875 141.171875 166.738281 141.171875 C 167.398438 141.171875 167.746094 141.253906 167.625 141.378906 C 167.554688 141.445312 166.269531 141.503906 166.136719 141.445312 Z M 142.675781 218.882812 C 142.675781 218.707031 143.113281 218.636719 143.890625 218.691406 C 144.328125 218.722656 144.679688 218.773438 144.679688 218.804688 C 144.679688 218.875 143.855469 218.964844 143.183594 218.964844 C 142.890625 218.964844 142.675781 218.929688 142.675781 218.882812 Z M 190.652344 218.878906 C 190.203125 218.804688 190.039062 218.691406 190.183594 218.550781 C 190.25 218.484375 190.394531 218.480469 190.738281 218.542969 C 190.996094 218.589844 191.394531 218.652344 191.628906 218.683594 C 192.132812 218.746094 192.1875 218.878906 191.707031 218.878906 C 191.519531 218.882812 191.292969 218.894531 191.203125 218.914062 C 191.117188 218.929688 190.867188 218.914062 190.652344 218.878906 Z M 142.324219 218.476562 C 142.246094 218.082031 142.261719 217.941406 142.40625 217.796875 C 142.605469 217.597656 142.6875 217.804688 142.578125 218.246094 C 142.464844 218.71875 142.386719 218.789062 142.324219 218.476562 Z M 192.046875 217.835938 C 192.046875 217.746094 192.085938 217.691406 192.128906 217.71875 C 192.171875 217.746094 192.207031 217.820312 192.207031 217.886719 C 192.207031 217.949219 192.171875 218 192.128906 218 C 192.085938 218 192.046875 217.925781 192.046875 217.835938 Z M 203.4375 215.589844 C 201.054688 215.378906 199.214844 214.496094 198.617188 213.28125 C 198.464844 212.96875 198.429688 212.777344 198.433594 212.179688 C 198.433594 211.5625 198.46875 211.386719 198.652344 210.984375 C 199.363281 209.457031 200.683594 208.296875 203.007812 207.164062 C 205.519531 205.9375 208.269531 205.3125 211.238281 205.292969 C 212.324219 205.285156 212.769531 205.316406 213.203125 205.421875 C 214.21875 205.675781 214.765625 206.152344 214.648438 206.675781 C 214.585938 206.953125 214.289062 207.246094 214.035156 207.28125 C 213.175781 207.390625 212.355469 207.5 212.125 207.535156 L 211.851562 207.578125 L 212.085938 207.773438 C 212.285156 207.941406 212.375 207.960938 212.683594 207.925781 C 212.878906 207.902344 213.3125 207.847656 213.644531 207.808594 C 217.558594 207.355469 220.972656 206.808594 226.210938 205.792969 C 230.453125 204.972656 232.035156 204.625 233.480469 204.183594 L 234.054688 204.011719 L 234.015625 203.644531 C 233.933594 202.929688 233.035156 201.441406 231.519531 199.503906 C 231.214844 199.117188 230.332031 198.035156 229.554688 197.101562 C 228.777344 196.167969 227.546875 194.644531 226.816406 193.714844 C 225.601562 192.171875 225.0625 191.445312 223.371094 189.039062 C 223.050781 188.585938 222.757812 188.21875 222.722656 188.21875 C 222.6875 188.21875 222.636719 188.515625 222.609375 188.878906 C 222.578125 189.242188 222.464844 190.644531 222.355469 191.992188 C 222.246094 193.335938 222.117188 195.792969 222.066406 197.449219 C 221.972656 200.476562 221.996094 201.214844 222.289062 205.53125 L 222.335938 206.1875 L 222.0625 206.261719 C 221.8125 206.324219 221.789062 206.316406 221.738281 206.125 C 221.628906 205.699219 221.503906 203.511719 221.457031 201.261719 C 221.394531 198.050781 221.558594 194.359375 221.953125 190.222656 C 222.125 188.417969 222.1875 188.574219 221.453125 188.910156 C 219.660156 189.730469 216.226562 190.96875 214.285156 191.5 C 212.011719 192.117188 208.335938 192.746094 205.777344 192.949219 L 204.773438 193.027344 L 204.160156 192.660156 C 202.949219 191.929688 201.527344 190.601562 199.730469 188.515625 C 198.773438 187.40625 197.523438 185.664062 195.523438 182.65625 C 194.421875 181 193.511719 179.707031 193.445312 179.707031 C 193.097656 179.707031 192.28125 179.066406 191.984375 178.5625 C 191.910156 178.441406 191.828125 178.34375 191.796875 178.34375 C 191.671875 178.34375 189.789062 178.761719 189.050781 178.957031 C 188.429688 179.117188 188.207031 179.21875 188.007812 179.414062 C 187.8125 179.605469 187.605469 179.703125 187.144531 179.8125 C 186.8125 179.890625 186.480469 179.929688 186.414062 179.90625 C 186.34375 179.878906 186.125 179.941406 185.933594 180.039062 C 185.664062 180.179688 185.453125 180.222656 184.984375 180.226562 C 184.226562 180.226562 183.65625 179.984375 183.003906 179.371094 C 182.40625 178.808594 182.257812 178.46875 182.257812 177.675781 C 182.253906 176.796875 182.632812 175.691406 182.9375 175.691406 C 183.03125 175.691406 183.058594 175.808594 183.058594 176.234375 C 183.058594 176.9375 183.167969 177.316406 183.472656 177.664062 C 183.761719 177.996094 184.011719 178.019531 184.707031 177.777344 C 185.222656 177.601562 185.429688 177.628906 185.867188 177.941406 C 186.078125 178.089844 186.121094 178.097656 186.285156 177.992188 C 186.386719 177.929688 186.625 177.855469 186.816406 177.828125 C 187.007812 177.796875 187.53125 177.671875 187.980469 177.546875 C 188.429688 177.421875 189.394531 177.183594 190.121094 177.019531 C 190.851562 176.851562 191.492188 176.679688 191.546875 176.636719 C 191.601562 176.589844 191.648438 176.46875 191.648438 176.367188 C 191.648438 176.261719 191.707031 176.027344 191.777344 175.847656 L 191.910156 175.515625 L 192.523438 175.542969 C 193.058594 175.570312 193.179688 175.605469 193.53125 175.847656 L 193.933594 176.121094 L 195.820312 175.738281 C 196.859375 175.53125 198.773438 175.128906 200.078125 174.847656 C 201.378906 174.566406 202.769531 174.285156 203.167969 174.21875 C 203.988281 174.085938 205.617188 173.96875 205.617188 174.046875 C 205.617188 174.074219 205.578125 174.167969 205.535156 174.25 C 205.390625 174.515625 200.484375 176.054688 195.753906 177.316406 L 194.761719 177.578125 L 194.746094 178.3125 C 194.734375 178.960938 194.710938 179.078125 194.511719 179.375 L 194.292969 179.707031 L 194.71875 180.289062 C 194.953125 180.609375 195.59375 181.523438 196.140625 182.316406 C 198.585938 185.875 199.554688 187.148438 201.191406 188.972656 C 202.589844 190.527344 204.121094 191.839844 205.09375 192.308594 C 205.414062 192.464844 205.492188 192.46875 206.351562 192.390625 C 208.300781 192.207031 211.765625 191.597656 213.886719 191.058594 C 215.832031 190.5625 219.820312 189.136719 221.609375 188.296875 C 222.140625 188.046875 222.148438 188.039062 222.195312 187.667969 C 222.300781 186.902344 222.492188 185.753906 222.601562 185.289062 C 222.660156 185.027344 222.703125 184.804688 222.695312 184.800781 C 222.683594 184.792969 222.230469 184.730469 221.6875 184.65625 C 218.011719 184.152344 214.0625 181.546875 212.601562 178.664062 C 212.316406 178.097656 211.996094 177.199219 211.816406 176.46875 C 211.597656 175.5625 211.625 172.503906 211.867188 171.355469 C 212.585938 167.914062 214.480469 164.980469 216.875 163.59375 C 217.21875 163.394531 217.542969 163.171875 217.601562 163.101562 C 217.820312 162.804688 218.625 162.152344 219.363281 161.667969 C 220.871094 160.675781 222.96875 159.828125 224.148438 159.738281 C 224.683594 159.695312 224.738281 159.707031 224.710938 159.835938 C 224.691406 159.941406 224.503906 160.023438 224 160.15625 C 221.960938 160.683594 220.375 161.40625 218.921875 162.46875 C 218.621094 162.6875 218.390625 162.882812 218.40625 162.902344 C 218.425781 162.921875 219.042969 162.71875 219.777344 162.453125 C 221.117188 161.972656 222.386719 161.644531 222.914062 161.644531 C 223.070312 161.644531 223.53125 161.535156 223.9375 161.40625 C 225.339844 160.960938 226.195312 160.832031 227.726562 160.832031 C 228.582031 160.832031 228.867188 160.855469 228.957031 160.945312 C 229.054688 161.042969 229.054688 161.074219 228.953125 161.179688 C 228.859375 161.269531 228.511719 161.308594 227.519531 161.355469 C 226.085938 161.417969 224.859375 161.582031 225.203125 161.664062 C 225.3125 161.691406 225.65625 161.757812 225.96875 161.808594 C 226.765625 161.945312 227.753906 162.308594 228.769531 162.835938 C 231.761719 164.382812 233.785156 166.652344 234.789062 169.597656 C 235.273438 171.015625 235.417969 171.863281 235.421875 173.285156 C 235.421875 175.15625 235.175781 176.273438 234.386719 177.933594 C 233.519531 179.765625 232.121094 181.503906 230.667969 182.550781 C 228.765625 183.917969 226.351562 184.726562 224.003906 184.785156 L 223.164062 184.804688 L 223.066406 185.246094 C 223.011719 185.488281 222.917969 186.082031 222.855469 186.566406 L 222.738281 187.445312 L 223.015625 187.691406 C 223.167969 187.824219 223.570312 188.3125 223.902344 188.777344 C 226.019531 191.703125 227.214844 193.234375 229.945312 196.523438 C 232.496094 199.601562 233.292969 200.652344 233.976562 201.820312 C 234.578125 202.851562 234.789062 204.007812 234.433594 204.339844 C 234.011719 204.734375 230.550781 205.539062 223.519531 206.878906 C 220.34375 207.484375 213.699219 208.445312 212.71875 208.445312 C 212.496094 208.445312 212.304688 208.539062 211.914062 208.824219 C 211.636719 209.035156 211.414062 209.214844 211.429688 209.230469 C 211.445312 209.246094 212.046875 209.304688 212.769531 209.367188 C 214.722656 209.53125 215.339844 209.71875 215.65625 210.238281 C 215.855469 210.570312 215.851562 210.800781 215.636719 211.25 C 215.21875 212.109375 213.789062 213.222656 212.027344 214.058594 C 210.132812 214.957031 208.285156 215.417969 205.894531 215.589844 C 204.660156 215.679688 204.457031 215.679688 203.4375 215.589844 Z M 207.644531 214.960938 C 210.082031 214.527344 211.886719 213.863281 213.519531 212.796875 C 214.246094 212.324219 215.222656 211.371094 215.296875 211.066406 C 215.484375 210.304688 214.765625 209.980469 212.480469 209.808594 C 211.15625 209.710938 210.5 209.605469 210.113281 209.429688 C 209.898438 209.332031 209.546875 209.300781 208.652344 209.296875 C 207.589844 209.285156 207.453125 209.273438 207.246094 209.121094 C 207.082031 209 207.015625 208.871094 206.996094 208.652344 C 206.972656 208.382812 207.011719 208.308594 207.332031 208 C 207.613281 207.734375 207.851562 207.601562 208.363281 207.433594 C 208.988281 207.21875 209.117188 207.207031 210.59375 207.195312 C 212.722656 207.175781 214.285156 206.953125 214.285156 206.671875 C 214.285156 206.496094 213.820312 206.136719 213.363281 205.957031 C 212.941406 205.792969 212.707031 205.765625 211.417969 205.734375 C 210.578125 205.714844 209.605469 205.734375 209.132812 205.792969 C 204.542969 206.3125 200.320312 208.441406 199.140625 210.824219 C 198.871094 211.375 198.832031 211.519531 198.835938 212.015625 C 198.839844 213.28125 199.742188 214.167969 201.605469 214.742188 C 202.839844 215.121094 203.425781 215.191406 205.136719 215.15625 C 206.246094 215.136719 206.972656 215.078125 207.644531 214.960938 Z M 203.769531 214.199219 C 203.570312 214.042969 203.316406 213.839844 203.207031 213.75 L 203.007812 213.585938 L 203.222656 213.394531 C 203.34375 213.285156 203.589844 213.179688 203.796875 213.148438 C 204.285156 213.074219 204.390625 212.941406 204.128906 212.714844 C 203.886719 212.503906 203.882812 212.429688 204.09375 212.21875 C 204.242188 212.066406 204.339844 212.058594 205.246094 212.082031 C 206.015625 212.101562 206.285156 212.136719 206.449219 212.246094 C 206.863281 212.515625 206.65625 213.113281 206.097656 213.261719 C 205.796875 213.34375 205.785156 213.363281 205.761719 213.71875 C 205.726562 214.230469 205.507812 214.382812 204.726562 214.445312 C 204.136719 214.488281 204.128906 214.484375 203.769531 214.199219 Z M 205.402344 213.992188 C 205.445312 213.949219 205.421875 213.816406 205.34375 213.660156 C 205.097656 213.164062 205.191406 212.992188 205.765625 212.917969 C 205.957031 212.894531 206.136719 212.851562 206.164062 212.824219 C 206.277344 212.707031 205.914062 212.5625 205.496094 212.558594 C 205.105469 212.558594 205.035156 212.582031 204.855469 212.792969 C 204.742188 212.929688 204.652344 213.066406 204.652344 213.101562 C 204.652344 213.226562 204.117188 213.503906 203.882812 213.507812 L 203.648438 213.507812 L 203.890625 213.703125 C 204.082031 213.863281 204.148438 213.882812 204.210938 213.796875 C 204.253906 213.738281 204.464844 213.496094 204.675781 213.261719 C 204.960938 212.945312 205.085938 212.859375 205.152344 212.925781 C 205.21875 212.992188 205.117188 213.144531 204.75 213.511719 C 204.480469 213.785156 204.277344 214.042969 204.304688 214.085938 C 204.363281 214.179688 205.292969 214.097656 205.402344 213.988281 Z M 210.273438 212.464844 C 210.210938 212.425781 209.921875 212.363281 209.632812 212.335938 C 209.003906 212.269531 208.964844 212.253906 209.066406 212.066406 C 209.125 211.953125 209.082031 211.867188 208.863281 211.652344 C 208.574219 211.375 208.515625 211.171875 208.6875 211.035156 C 208.863281 210.894531 210.519531 210.363281 210.699219 210.390625 C 210.808594 210.40625 210.882812 210.480469 210.898438 210.59375 C 210.925781 210.777344 211.105469 210.839844 211.195312 210.695312 C 211.289062 210.546875 211.984375 210.609375 212.320312 210.796875 C 212.574219 210.941406 212.648438 211.035156 212.667969 211.234375 C 212.699219 211.566406 212.398438 211.773438 211.890625 211.777344 C 211.5625 211.777344 211.492188 211.816406 211.171875 212.160156 C 210.808594 212.546875 210.546875 212.636719 210.273438 212.464844 Z M 210.960938 211.972656 C 211.125 211.800781 211.152344 211.746094 211.046875 211.785156 C 210.917969 211.835938 210.90625 211.816406 210.953125 211.648438 C 210.988281 211.542969 211.050781 211.414062 211.097656 211.355469 C 211.140625 211.300781 211.152344 211.226562 211.121094 211.195312 C 211.085938 211.164062 210.902344 211.316406 210.707031 211.539062 C 210.367188 211.925781 210.238281 211.90625 210.472656 211.496094 C 210.605469 211.269531 210.628906 211.097656 210.523438 211.097656 C 210.425781 211.097656 209.871094 211.824219 209.871094 211.953125 C 209.871094 212.015625 209.960938 212.0625 210.09375 212.0625 C 210.214844 212.0625 210.367188 212.097656 210.433594 212.140625 C 210.625 212.261719 210.707031 212.238281 210.960938 211.972656 Z M 209.851562 211.640625 C 209.949219 211.449219 210.125 211.179688 210.242188 211.035156 C 210.390625 210.851562 210.417969 210.773438 210.339844 210.773438 C 210.132812 210.773438 209.46875 211.597656 209.46875 211.851562 C 209.46875 212.09375 209.679688 211.976562 209.851562 211.640625 Z M 209.414062 211.34375 C 209.585938 211.050781 209.585938 210.996094 209.410156 211.042969 C 209.332031 211.066406 209.167969 211.105469 209.039062 211.132812 L 208.808594 211.183594 L 208.992188 211.382812 C 209.226562 211.628906 209.246094 211.628906 209.414062 211.34375 Z M 212.199219 211.351562 C 212.199219 211.316406 212.15625 211.246094 212.105469 211.191406 C 211.960938 211.050781 211.878906 211.074219 211.878906 211.257812 C 211.878906 211.363281 211.933594 211.417969 212.039062 211.417969 C 212.128906 211.417969 212.199219 211.386719 212.199219 211.355469 Z M 200.980469 211.523438 C 200.925781 211.503906 200.878906 211.4375 200.878906 211.382812 C 200.878906 211.316406 200.738281 211.261719 200.519531 211.238281 C 200.089844 211.191406 199.753906 210.988281 199.753906 210.78125 C 199.753906 210.632812 200.179688 210.214844 200.328125 210.214844 C 200.371094 210.214844 200.382812 210.175781 200.355469 210.128906 C 200.121094 209.75 200.882812 209.25 201.699219 209.25 C 202.347656 209.25 203.375 209.40625 203.589844 209.542969 C 203.851562 209.703125 203.703125 209.953125 203.308594 210.015625 C 202.648438 210.121094 202.496094 210.292969 202.808594 210.574219 C 203.007812 210.757812 203.011719 211.03125 202.816406 211.207031 C 202.570312 211.429688 201.292969 211.652344 200.980469 211.523438 Z M 200.71875 210.742188 C 200.71875 210.632812 200.683594 210.523438 200.640625 210.496094 C 200.566406 210.449219 200.078125 210.660156 200.078125 210.734375 C 200.078125 210.765625 200.507812 210.910156 200.660156 210.929688 C 200.691406 210.929688 200.71875 210.847656 200.71875 210.742188 Z M 204.769531 210.691406 C 204.738281 210.640625 204.753906 210.5625 204.804688 210.511719 C 204.945312 210.375 204.914062 210.320312 204.632812 210.210938 C 203.835938 209.894531 203.945312 209.316406 204.886719 208.894531 C 205.179688 208.761719 205.265625 208.753906 205.660156 208.84375 C 205.960938 208.910156 206.140625 209 206.222656 209.125 C 206.289062 209.226562 206.480469 209.347656 206.652344 209.398438 C 206.824219 209.449219 207.003906 209.542969 207.058594 209.609375 C 207.160156 209.730469 207.101562 210.050781 206.980469 210.050781 C 206.9375 210.050781 206.789062 210.152344 206.640625 210.277344 C 206.496094 210.398438 206.269531 210.550781 206.136719 210.605469 C 205.816406 210.746094 204.84375 210.808594 204.769531 210.691406 Z M 206.078125 210.328125 C 206.242188 210.261719 206.441406 210.117188 206.519531 210.011719 L 206.664062 209.816406 L 206.277344 209.707031 C 206.042969 209.640625 205.867188 209.535156 205.820312 209.433594 C 205.78125 209.339844 205.609375 209.21875 205.449219 209.167969 C 205.179688 209.078125 205.117188 209.089844 204.804688 209.261719 C 204.3125 209.53125 204.3125 209.679688 204.808594 209.929688 C 205.089844 210.070312 205.214844 210.183594 205.214844 210.292969 C 205.214844 210.425781 205.269531 210.453125 205.492188 210.453125 C 205.648438 210.453125 205.910156 210.398438 206.078125 210.328125 Z M 204.078125 208.394531 C 203.457031 208.320312 203.5 207.960938 204.15625 207.648438 C 204.378906 207.546875 204.578125 207.402344 204.597656 207.324219 C 204.617188 207.246094 204.726562 207.160156 204.84375 207.132812 C 204.964844 207.101562 205.402344 206.933594 205.820312 206.753906 C 206.625 206.40625 207.007812 206.382812 207.101562 206.675781 C 207.179688 206.929688 207.054688 207.078125 206.648438 207.222656 C 206.308594 207.34375 206.253906 207.390625 206.265625 207.5625 C 206.285156 207.921875 206.265625 207.957031 205.917969 208.15625 C 205.5625 208.363281 204.726562 208.472656 204.078125 208.394531 Z M 205.484375 208.050781 C 205.910156 207.949219 205.992188 207.855469 205.859375 207.609375 C 205.730469 207.367188 205.855469 207.164062 206.136719 207.164062 C 206.378906 207.164062 206.820312 207.003906 206.820312 206.914062 C 206.820312 206.804688 206.429688 206.734375 206.316406 206.824219 C 206.265625 206.871094 205.964844 207.003906 205.65625 207.125 C 205.347656 207.246094 205.058594 207.386719 205.015625 207.4375 C 204.96875 207.488281 204.726562 207.632812 204.46875 207.761719 C 204.15625 207.921875 204.039062 208.015625 204.109375 208.058594 C 204.246094 208.144531 205.097656 208.140625 205.484375 208.050781 Z M 211.019531 208.933594 C 211.070312 208.890625 211.269531 208.722656 211.457031 208.5625 L 211.804688 208.261719 L 211.621094 208.070312 C 211.261719 207.683594 210.980469 207.574219 210.21875 207.519531 C 209.730469 207.480469 209.351562 207.496094 209.058594 207.5625 C 208.484375 207.699219 207.699219 208.058594 207.507812 208.277344 C 207.351562 208.453125 207.351562 208.453125 207.53125 208.632812 C 207.699219 208.796875 207.78125 208.808594 209.050781 208.824219 C 209.789062 208.832031 210.5 208.871094 210.632812 208.914062 C 210.765625 208.957031 210.882812 209 210.898438 209.003906 C 210.910156 209.003906 210.964844 208.976562 211.019531 208.933594 Z M 226.175781 183.929688 C 228.449219 183.457031 230.589844 182.285156 231.941406 180.777344 C 233.25 179.324219 234.46875 176.882812 234.65625 175.347656 C 234.691406 175.074219 234.714844 174.199219 234.714844 173.40625 C 234.710938 172.039062 234.695312 171.90625 234.453125 170.996094 C 234.046875 169.480469 233.632812 168.535156 232.847656 167.34375 C 231.371094 165.109375 228.371094 163.023438 225.851562 162.476562 C 224.160156 162.109375 221.941406 162.148438 220.417969 162.566406 L 220.027344 162.675781 L 220.386719 162.683594 C 220.589844 162.691406 220.804688 162.726562 220.871094 162.765625 C 221.121094 162.925781 220.792969 163.039062 219.929688 163.09375 C 218.554688 163.1875 217.222656 163.714844 216.078125 164.628906 C 214.476562 165.902344 212.996094 168.53125 212.480469 171.023438 C 212.183594 172.457031 212.144531 174.660156 212.394531 175.96875 C 212.949219 178.855469 215.050781 181.265625 218.460938 182.921875 C 220.273438 183.800781 221.628906 184.101562 223.839844 184.113281 C 225.03125 184.121094 225.382812 184.09375 226.175781 183.929688 Z M 216.46875 179.925781 C 216.386719 179.828125 216.390625 179.78125 216.496094 179.675781 C 216.597656 179.574219 216.800781 179.546875 217.445312 179.546875 C 218.855469 179.546875 220.15625 179.179688 221.953125 178.28125 C 223.398438 177.558594 225.066406 176.464844 225.640625 175.859375 C 225.945312 175.542969 226.191406 175.527344 226.15625 175.828125 C 226.089844 176.386719 223.363281 178.207031 221.132812 179.183594 C 219.707031 179.808594 219.070312 179.960938 217.738281 180.007812 C 216.757812 180.039062 216.550781 180.027344 216.46875 179.925781 Z M 215.730469 172.816406 C 215.460938 172.542969 215.367188 172.0625 215.4375 171.292969 C 215.527344 170.34375 216 169.660156 216.476562 169.78125 C 216.917969 169.890625 217.246094 171.386719 217.019531 172.234375 C 216.8125 172.988281 216.1875 173.273438 215.730469 172.816406 Z M 219.566406 171.859375 C 219.261719 171.535156 219.160156 171.0625 219.253906 170.402344 C 219.34375 169.738281 219.523438 169.339844 219.84375 169.066406 C 220.289062 168.695312 220.625 168.859375 220.835938 169.554688 C 221.089844 170.398438 220.925781 171.460938 220.476562 171.914062 C 220.230469 172.15625 219.828125 172.136719 219.566406 171.859375 Z M 213.964844 169.027344 C 213.964844 168.871094 214.726562 168.121094 215.195312 167.816406 C 215.671875 167.507812 216.0625 167.371094 216.214844 167.464844 C 216.347656 167.546875 216.179688 167.707031 215.664062 168 C 215.417969 168.144531 214.988281 168.449219 214.714844 168.683594 C 214.238281 169.085938 213.964844 169.214844 213.964844 169.027344 Z M 222.035156 167.183594 C 221.21875 166.894531 220.523438 166.816406 219.894531 166.9375 C 219.628906 166.992188 219.394531 167.019531 219.375 167 C 219.28125 166.90625 219.476562 166.691406 219.800781 166.535156 C 220.121094 166.378906 220.253906 166.363281 221.015625 166.398438 C 221.910156 166.441406 222.542969 166.617188 222.957031 166.941406 C 223.121094 167.066406 223.140625 167.121094 223.070312 167.238281 C 222.941406 167.449219 222.75 167.441406 222.035156 167.183594 Z M 185.707031 179.65625 C 185.886719 179.585938 186.019531 179.484375 186.003906 179.4375 C 185.96875 179.339844 185.84375 179.339844 185.125 179.425781 C 184.691406 179.484375 184.664062 179.476562 184.664062 179.316406 C 184.664062 179.109375 184.855469 179.050781 185.464844 179.082031 C 185.875 179.101562 185.910156 179.089844 185.933594 178.914062 C 185.957031 178.75 185.9375 178.734375 185.773438 178.78125 C 185.671875 178.8125 185.550781 178.871094 185.511719 178.910156 C 185.394531 179.019531 184.492188 178.992188 184.261719 178.878906 C 184.152344 178.824219 184.023438 178.699219 183.984375 178.605469 C 183.9375 178.503906 183.808594 178.414062 183.660156 178.386719 C 183.335938 178.324219 183.078125 178.136719 182.890625 177.828125 L 182.734375 177.578125 L 182.734375 177.824219 C 182.734375 178.332031 183.371094 179.054688 184.179688 179.464844 C 184.867188 179.8125 185.203125 179.855469 185.707031 179.652344 Z M 186.9375 179.339844 C 186.886719 179.203125 186.75 179.269531 186.75 179.429688 C 186.75 179.492188 186.796875 179.523438 186.867188 179.496094 C 186.929688 179.472656 186.960938 179.402344 186.9375 179.339844 Z M 194.148438 179.175781 C 194.222656 179.082031 194.253906 178.828125 194.253906 178.390625 C 194.246094 177.582031 194.027344 176.976562 193.542969 176.441406 C 193.246094 176.117188 193.132812 176.050781 192.726562 175.96875 C 192.445312 175.910156 192.21875 175.898438 192.171875 175.941406 C 191.949219 176.152344 192 177.542969 192.25 178.019531 C 192.46875 178.433594 193.238281 179.105469 193.628906 179.222656 C 193.964844 179.324219 194.027344 179.320312 194.148438 179.171875 Z M 187.632812 179.160156 C 187.632812 179.121094 187.722656 179.050781 187.828125 179 C 188.019531 178.917969 188.019531 178.898438 187.910156 178.683594 C 187.847656 178.5625 187.792969 178.347656 187.792969 178.203125 C 187.792969 177.949219 187.789062 177.945312 187.570312 178.039062 C 187.453125 178.09375 187.324219 178.175781 187.292969 178.222656 C 187.1875 178.363281 187.226562 178.863281 187.355469 179.046875 C 187.480469 179.222656 187.632812 179.285156 187.632812 179.160156 Z M 186.6875 178.925781 C 186.757812 178.847656 186.828125 178.664062 186.847656 178.519531 C 186.882812 178.273438 186.867188 178.257812 186.675781 178.277344 C 186.488281 178.296875 186.464844 178.339844 186.445312 178.683594 C 186.417969 179.089844 186.484375 179.152344 186.6875 178.925781 Z M 188.742188 178.699219 C 188.757812 178.6875 188.730469 178.605469 188.683594 178.515625 C 188.636719 178.425781 188.597656 178.222656 188.597656 178.066406 C 188.597656 177.769531 188.53125 177.722656 188.269531 177.863281 C 188.082031 177.964844 188.074219 178.144531 188.238281 178.539062 C 188.34375 178.785156 188.386719 178.824219 188.539062 178.777344 C 188.636719 178.75 188.730469 178.714844 188.742188 178.699219 Z M 185.644531 178.339844 C 185.339844 178.058594 185.042969 178.035156 184.507812 178.238281 L 184.152344 178.375 L 184.386719 178.476562 C 184.515625 178.53125 184.910156 178.574219 185.265625 178.578125 L 185.90625 178.578125 L 185.644531 178.335938 Z M 190.550781 178.257812 L 191.664062 177.984375 L 191.617188 177.589844 C 191.59375 177.375 191.558594 177.179688 191.539062 177.160156 C 191.515625 177.144531 190.996094 177.238281 190.375 177.375 C 189.757812 177.507812 189.230469 177.621094 189.203125 177.621094 C 189.179688 177.621094 189.160156 177.839844 189.160156 178.109375 C 189.160156 178.539062 189.175781 178.597656 189.300781 178.5625 C 189.375 178.542969 189.941406 178.40625 190.550781 178.257812 Z M 196.15625 176.820312 C 199.171875 176.035156 203.910156 174.625 203.648438 174.589844 C 203.496094 174.566406 202.683594 174.726562 198.550781 175.597656 C 197.511719 175.816406 196.171875 176.09375 195.566406 176.214844 C 194.960938 176.339844 194.425781 176.464844 194.375 176.496094 C 194.226562 176.589844 194.589844 177.238281 194.761719 177.1875 C 194.835938 177.164062 195.464844 177 196.15625 176.820312 Z M 197.964844 214.335938 C 196.941406 213.71875 196.632812 212.753906 197.109375 211.675781 C 197.226562 211.410156 197.296875 211.332031 197.359375 211.398438 C 197.421875 211.460938 197.421875 211.558594 197.355469 211.746094 C 197.234375 212.097656 197.246094 212.652344 197.378906 212.972656 C 197.519531 213.3125 198.34375 214.433594 198.53125 214.542969 C 198.640625 214.605469 198.644531 214.621094 198.550781 214.621094 C 198.484375 214.621094 198.222656 214.492188 197.964844 214.335938 Z M 216.957031 212.304688 C 217.433594 211.746094 217.691406 211.1875 217.691406 210.714844 C 217.691406 210.375 217.71875 210.292969 217.828125 210.292969 C 217.902344 210.292969 217.984375 210.351562 218.011719 210.417969 C 218.21875 210.957031 217.746094 211.980469 217.089844 212.414062 C 216.664062 212.699219 216.636719 212.675781 216.957031 212.304688 Z M 235.066406 205.261719 C 236.207031 204.378906 236.445312 204.105469 236.445312 203.667969 C 236.445312 203.527344 236.390625 203.363281 236.324219 203.308594 C 236.144531 203.160156 236.179688 203 236.40625 202.941406 C 237.011719 202.789062 237.089844 203.800781 236.523438 204.511719 C 236.289062 204.816406 235.589844 205.21875 235.078125 205.351562 L 234.878906 205.402344 Z M 204.117188 194.722656 C 203.691406 194.53125 203.289062 193.996094 203.289062 193.621094 C 203.289062 193.25 203.445312 193.28125 203.753906 193.714844 C 203.894531 193.914062 204.121094 194.148438 204.261719 194.234375 C 204.613281 194.445312 205.570312 194.667969 205.875 194.609375 C 206.308594 194.519531 206.046875 194.652344 205.558594 194.765625 C 204.925781 194.917969 204.515625 194.90625 204.117188 194.722656 Z M 206.363281 175.027344 C 206.792969 174.660156 206.980469 174.339844 206.980469 173.96875 C 206.980469 173.417969 206.746094 173.148438 206.074219 172.933594 C 205.957031 172.894531 205.945312 172.855469 206.015625 172.726562 C 206.136719 172.503906 206.71875 172.5 207 172.726562 C 207.277344 172.941406 207.464844 173.367188 207.464844 173.789062 C 207.464844 174.242188 207.160156 174.679688 206.601562 175.039062 C 206.089844 175.367188 205.972656 175.363281 206.363281 175.03125 Z M 191.808594 158.617188 C 191.808594 158.285156 191.878906 158.109375 192.015625 158.109375 C 192.183594 158.109375 192.152344 158.464844 191.96875 158.683594 L 191.8125 158.875 Z M 189.71875 158.3125 C 189.71875 158.210938 189.875 158.191406 190.644531 158.191406 C 191.550781 158.191406 191.855469 158.285156 191.265625 158.382812 C 191.097656 158.40625 190.6875 158.433594 190.34375 158.433594 C 189.84375 158.433594 189.71875 158.40625 189.71875 158.3125 Z M 142.03125 158.128906 C 142.03125 158.085938 142.101562 157.964844 142.1875 157.859375 C 142.316406 157.695312 142.421875 157.667969 142.988281 157.640625 C 143.351562 157.625 143.75 157.652344 143.898438 157.707031 C 144.042969 157.757812 144.460938 157.820312 144.820312 157.847656 C 145.1875 157.875 145.484375 157.921875 145.484375 157.949219 C 145.484375 157.980469 144.898438 158.03125 144.179688 158.0625 C 143.460938 158.09375 142.6875 158.140625 142.453125 158.164062 C 142.1875 158.195312 142.03125 158.183594 142.03125 158.132812 Z M 142.03125 158.128906 " fill-opacity="1" fill-rule="nonzero"/></g></svg>