<svg xmlns="http://www.w3.org/2000/svg" xmlns:xlink="http://www.w3.org/1999/xlink" width="500" zoomAndPan="magnify" viewBox="0 0 375 374.999991" height="500" preserveAspectRatio="xMidYMid meet" version="1.0"><defs><clipPath id="id1"><path d="M 122.402344 152.308594 L 241.652344 152.308594 L 241.652344 237 L 122.402344 237 Z M 122.402344 152.308594 " clip-rule="nonzero"/></clipPath></defs><path fill="rgb(54.899597%, 78.42865%, 100%)" d="M 216.464844 129.484375 L 147.390625 129.484375 L 117.050781 181.984375 L 147.390625 234.480469 L 216.464844 234.480469 L 246.800781 181.984375 L 216.464844 129.484375 " fill-opacity="1" fill-rule="nonzero"/><path fill="rgb(78.039551%, 81.568909%, 84.709167%)" d="M 135.613281 199.394531 L 134.382812 197.296875 L 207.324219 124.511719 L 210.652344 124.511719 Z M 203.996094 124.511719 L 200.671875 124.511719 L 131.976562 193.058594 L 133.207031 195.152344 Z M 217.304688 124.511719 L 213.980469 124.511719 L 136.839844 201.488281 L 138.070312 203.582031 Z M 222.269531 126.246094 L 221.246094 124.511719 L 220.632812 124.511719 L 139.246094 205.675781 L 140.476562 207.769531 Z M 224.675781 130.4375 L 223.449219 128.339844 L 141.753906 209.914062 L 142.984375 212.007812 Z M 197.34375 124.511719 L 194.015625 124.511719 L 129.519531 188.820312 L 130.75 190.914062 Z M 227.132812 134.675781 L 225.90625 132.582031 L 144.160156 214.15625 L 145.390625 216.25 Z M 146.925781 141.570312 L 164.019531 124.511719 L 160.695312 124.511719 L 151.480469 133.703125 Z M 238.085938 153.625 L 156.34375 235.199219 L 156.753906 235.964844 L 158.953125 235.964844 L 239.316406 155.769531 Z M 170.675781 124.511719 L 167.347656 124.511719 L 142.367188 149.4375 L 137.8125 157.304688 Z M 177.328125 124.511719 L 174.003906 124.511719 L 133.257812 165.167969 L 128.703125 173.035156 Z M 190.6875 124.511719 L 187.363281 124.511719 L 127.117188 184.628906 L 128.34375 186.726562 Z M 183.984375 124.511719 L 180.65625 124.511719 L 124.660156 180.390625 L 125.886719 182.484375 Z M 156.035156 125.839844 L 157.367188 124.511719 L 156.804688 124.511719 Z M 251.753906 183.199219 L 253.496094 180.238281 L 252.726562 178.910156 L 195.601562 235.964844 L 198.929688 235.964844 Z M 251.5 176.816406 L 250.269531 174.722656 L 188.949219 235.964844 L 192.277344 235.964844 Z M 242.695312 198.933594 L 247.25 191.066406 L 202.257812 235.964844 L 205.585938 235.964844 Z M 233.582031 214.664062 L 238.140625 206.800781 L 208.910156 235.964844 L 212.238281 235.964844 Z M 224.472656 230.398438 L 229.027344 222.53125 L 215.566406 235.964844 L 218.894531 235.964844 Z M 249.09375 172.574219 L 247.863281 170.480469 L 182.242188 235.964844 L 185.570312 235.964844 Z M 246.636719 168.386719 L 245.40625 166.292969 L 175.589844 235.964844 L 178.917969 235.964844 Z M 234.453125 147.292969 L 233.226562 145.199219 L 151.480469 226.769531 L 152.707031 228.867188 Z M 231.996094 143.101562 L 230.769531 141.007812 L 149.023438 222.582031 L 150.25 224.675781 Z M 236.859375 151.53125 L 235.628906 149.4375 L 153.9375 230.960938 L 155.164062 233.054688 Z M 244.179688 164.148438 L 242.949219 162.054688 L 168.933594 235.964844 L 172.261719 235.964844 Z M 229.589844 138.863281 L 228.363281 136.769531 L 146.617188 218.34375 L 147.847656 220.4375 Z M 241.773438 159.960938 L 240.542969 157.867188 L 162.28125 235.964844 L 165.609375 235.964844 Z M 241.773438 159.960938 " fill-opacity="1" fill-rule="nonzero"/><g clip-path="url(#id1)"><path fill="rgb(23.139954%, 27.059937%, 24.708557%)" d="M 236.363281 218.574219 L 236.363281 162.257812 C 236.363281 161.636719 236.300781 161.019531 236.179688 160.410156 C 236.054688 159.800781 235.875 159.207031 235.636719 158.632812 C 235.398438 158.058594 235.105469 157.511719 234.757812 156.992188 C 234.414062 156.476562 234.019531 156 233.582031 155.558594 C 233.140625 155.117188 232.660156 154.726562 232.144531 154.382812 C 231.625 154.035156 231.082031 153.742188 230.507812 153.507812 C 229.933594 153.269531 229.339844 153.089844 228.730469 152.96875 C 228.121094 152.847656 227.503906 152.785156 226.882812 152.785156 L 137.175781 152.785156 C 136.554688 152.785156 135.9375 152.847656 135.328125 152.96875 C 134.71875 153.089844 134.125 153.269531 133.550781 153.507812 C 132.976562 153.742188 132.429688 154.035156 131.914062 154.382812 C 131.394531 154.726562 130.917969 155.117188 130.476562 155.558594 C 130.035156 156 129.644531 156.476562 129.296875 156.992188 C 128.953125 157.511719 128.660156 158.058594 128.421875 158.632812 C 128.179688 159.207031 128 159.800781 127.878906 160.410156 C 127.757812 161.019531 127.695312 161.636719 127.691406 162.257812 L 127.691406 218.574219 C 127.332031 218.621094 126.976562 218.699219 126.628906 218.808594 C 126.28125 218.917969 125.945312 219.058594 125.625 219.226562 C 125.300781 219.398438 124.996094 219.597656 124.710938 219.820312 C 124.425781 220.046875 124.160156 220.296875 123.917969 220.570312 C 123.675781 220.84375 123.460938 221.136719 123.273438 221.449219 C 123.085938 221.761719 122.925781 222.085938 122.796875 222.429688 C 122.667969 222.769531 122.570312 223.121094 122.503906 223.476562 C 122.4375 223.835938 122.40625 224.199219 122.402344 224.5625 L 122.402344 230.6875 C 122.402344 231.085938 122.441406 231.480469 122.519531 231.871094 C 122.597656 232.261719 122.710938 232.640625 122.863281 233.007812 C 123.015625 233.375 123.203125 233.726562 123.425781 234.054688 C 123.644531 234.386719 123.898438 234.695312 124.179688 234.976562 C 124.460938 235.257812 124.765625 235.507812 125.097656 235.730469 C 125.425781 235.949219 125.777344 236.136719 126.144531 236.289062 C 126.511719 236.441406 126.890625 236.558594 127.28125 236.636719 C 127.671875 236.710938 128.066406 236.75 128.460938 236.75 L 235.59375 236.75 C 235.992188 236.75 236.386719 236.710938 236.777344 236.636719 C 237.167969 236.558594 237.546875 236.441406 237.914062 236.289062 C 238.28125 236.136719 238.628906 235.949219 238.960938 235.730469 C 239.292969 235.507812 239.597656 235.257812 239.878906 234.976562 C 240.160156 234.695312 240.410156 234.386719 240.632812 234.054688 C 240.855469 233.726562 241.039062 233.375 241.191406 233.007812 C 241.34375 232.640625 241.460938 232.261719 241.539062 231.871094 C 241.613281 231.480469 241.652344 231.085938 241.652344 230.6875 L 241.652344 224.523438 C 241.652344 224.160156 241.617188 223.800781 241.546875 223.445312 C 241.480469 223.089844 241.378906 222.742188 241.25 222.402344 C 241.121094 222.0625 240.960938 221.738281 240.769531 221.429688 C 240.582031 221.117188 240.367188 220.828125 240.125 220.554688 C 239.882812 220.285156 239.621094 220.035156 239.335938 219.8125 C 239.050781 219.589844 238.746094 219.390625 238.425781 219.222656 C 238.105469 219.054688 237.769531 218.914062 237.421875 218.808594 C 237.078125 218.699219 236.722656 218.621094 236.363281 218.574219 Z M 137.175781 156.636719 L 226.882812 156.636719 C 227.25 156.636719 227.617188 156.671875 227.980469 156.742188 C 228.339844 156.816406 228.691406 156.921875 229.035156 157.0625 C 229.375 157.203125 229.699219 157.378906 230.007812 157.582031 C 230.3125 157.789062 230.597656 158.019531 230.859375 158.28125 C 231.121094 158.542969 231.355469 158.828125 231.5625 159.132812 C 231.765625 159.441406 231.941406 159.765625 232.082031 160.105469 C 232.226562 160.445312 232.332031 160.796875 232.40625 161.160156 C 232.480469 161.523438 232.515625 161.890625 232.515625 162.257812 L 232.515625 218.5 L 227.863281 218.5 L 227.863281 163.972656 C 227.863281 163.714844 227.8125 163.472656 227.714844 163.234375 C 227.617188 163 227.480469 162.789062 227.300781 162.609375 C 227.121094 162.429688 226.910156 162.289062 226.675781 162.191406 C 226.441406 162.09375 226.195312 162.046875 225.941406 162.046875 L 138.117188 162.046875 C 137.863281 162.046875 137.617188 162.09375 137.382812 162.191406 C 137.144531 162.289062 136.9375 162.429688 136.757812 162.609375 C 136.578125 162.789062 136.4375 163 136.339844 163.234375 C 136.242188 163.472656 136.195312 163.714844 136.195312 163.972656 L 136.195312 218.5 L 131.539062 218.5 L 131.539062 162.257812 C 131.539062 161.890625 131.578125 161.523438 131.652344 161.160156 C 131.722656 160.796875 131.832031 160.445312 131.972656 160.105469 C 132.117188 159.765625 132.289062 159.441406 132.496094 159.132812 C 132.703125 158.828125 132.9375 158.542969 133.195312 158.28125 C 133.457031 158.019531 133.742188 157.789062 134.050781 157.582031 C 134.359375 157.378906 134.683594 157.203125 135.023438 157.0625 C 135.363281 156.921875 135.714844 156.816406 136.078125 156.742188 C 136.441406 156.671875 136.804688 156.636719 137.175781 156.636719 Z M 140.042969 218.5 L 140.042969 165.898438 L 224.015625 165.898438 L 224.015625 218.5 Z M 196.894531 222.351562 C 196.855469 222.75 196.742188 223.128906 196.558594 223.484375 C 196.375 223.84375 196.136719 224.15625 195.835938 224.421875 C 195.539062 224.691406 195.203125 224.898438 194.828125 225.042969 C 194.453125 225.183594 194.066406 225.257812 193.664062 225.257812 L 170.371094 225.257812 C 169.972656 225.257812 169.585938 225.183594 169.214844 225.039062 C 168.839844 224.894531 168.503906 224.691406 168.207031 224.421875 C 167.910156 224.152344 167.671875 223.839844 167.492188 223.484375 C 167.3125 223.125 167.203125 222.746094 167.160156 222.351562 Z M 237.808594 230.6875 C 237.808594 230.980469 237.75 231.261719 237.636719 231.535156 C 237.527344 231.804688 237.367188 232.042969 237.160156 232.253906 C 236.953125 232.460938 236.710938 232.621094 236.441406 232.730469 C 236.171875 232.84375 235.886719 232.902344 235.59375 232.902344 L 128.460938 232.902344 C 128.167969 232.902344 127.886719 232.84375 127.617188 232.730469 C 127.34375 232.621094 127.105469 232.460938 126.898438 232.253906 C 126.691406 232.042969 126.53125 231.804688 126.417969 231.535156 C 126.304688 231.261719 126.25 230.980469 126.25 230.6875 L 126.25 224.523438 C 126.25 224.230469 126.304688 223.949219 126.417969 223.679688 C 126.53125 223.40625 126.691406 223.167969 126.898438 222.960938 C 127.105469 222.753906 127.34375 222.59375 127.617188 222.480469 C 127.886719 222.367188 128.167969 222.3125 128.460938 222.3125 L 163.3125 222.3125 C 163.335938 222.761719 163.398438 223.207031 163.507812 223.644531 C 163.613281 224.082031 163.757812 224.503906 163.945312 224.914062 C 164.132812 225.324219 164.355469 225.714844 164.617188 226.082031 C 164.878906 226.449219 165.171875 226.789062 165.496094 227.097656 C 165.824219 227.410156 166.175781 227.6875 166.554688 227.933594 C 166.929688 228.175781 167.328125 228.382812 167.746094 228.554688 C 168.164062 228.722656 168.59375 228.847656 169.035156 228.9375 C 169.476562 229.023438 169.921875 229.066406 170.371094 229.070312 L 193.664062 229.070312 C 194.117188 229.070312 194.5625 229.023438 195.003906 228.9375 C 195.449219 228.851562 195.878906 228.726562 196.296875 228.558594 C 196.714844 228.390625 197.113281 228.183594 197.496094 227.941406 C 197.875 227.695312 198.226562 227.417969 198.554688 227.105469 C 198.878906 226.792969 199.171875 226.453125 199.433594 226.085938 C 199.695312 225.71875 199.921875 225.328125 200.109375 224.917969 C 200.296875 224.507812 200.445312 224.085938 200.550781 223.644531 C 200.65625 223.207031 200.722656 222.761719 200.742188 222.3125 L 235.59375 222.3125 C 235.890625 222.3125 236.175781 222.367188 236.449219 222.484375 C 236.722656 222.597656 236.964844 222.761719 237.171875 222.972656 C 237.378906 223.183594 237.539062 223.429688 237.648438 223.703125 C 237.757812 223.980469 237.8125 224.265625 237.808594 224.5625 Z M 237.808594 230.6875 " fill-opacity="1" fill-rule="nonzero"/></g><path fill="rgb(23.139954%, 27.059937%, 24.708557%)" d="M 215.089844 225.46875 C 214.867188 225.59375 214.675781 225.753906 214.519531 225.953125 C 214.359375 226.152344 214.246094 226.375 214.175781 226.621094 C 214.105469 226.867188 214.082031 227.117188 214.113281 227.371094 C 214.140625 227.625 214.21875 227.863281 214.339844 228.085938 C 214.511719 228.386719 214.742188 228.625 215.039062 228.800781 C 215.332031 228.976562 215.652344 229.066406 215.996094 229.070312 C 216.332031 229.066406 216.644531 228.984375 216.9375 228.820312 C 217.164062 228.691406 217.351562 228.523438 217.511719 228.320312 C 217.667969 228.117188 217.78125 227.890625 217.851562 227.640625 C 217.917969 227.394531 217.9375 227.140625 217.90625 226.882812 C 217.875 226.628906 217.792969 226.386719 217.667969 226.164062 C 217.539062 225.9375 217.375 225.746094 217.171875 225.589844 C 216.964844 225.429688 216.742188 225.316406 216.492188 225.246094 C 216.242188 225.179688 215.992188 225.160156 215.734375 225.191406 C 215.480469 225.222656 215.238281 225.304688 215.015625 225.429688 Z M 215.089844 225.46875 " fill-opacity="1" fill-rule="nonzero"/><path fill="rgb(23.139954%, 27.059937%, 24.708557%)" d="M 222.054688 225.46875 C 221.832031 225.59375 221.640625 225.753906 221.480469 225.953125 C 221.320312 226.152344 221.207031 226.375 221.136719 226.621094 C 221.066406 226.867188 221.046875 227.117188 221.074219 227.371094 C 221.105469 227.625 221.179688 227.863281 221.304688 228.085938 C 221.429688 228.308594 221.59375 228.5 221.792969 228.65625 C 221.992188 228.8125 222.214844 228.925781 222.460938 228.996094 C 222.707031 229.0625 222.957031 229.082031 223.207031 229.050781 C 223.460938 229.019531 223.699219 228.945312 223.921875 228.820312 C 224.144531 228.691406 224.335938 228.523438 224.492188 228.320312 C 224.652344 228.117188 224.765625 227.890625 224.832031 227.640625 C 224.902344 227.394531 224.917969 227.140625 224.886719 226.882812 C 224.855469 226.628906 224.777344 226.386719 224.648438 226.164062 C 224.519531 225.9375 224.355469 225.746094 224.152344 225.589844 C 223.949219 225.429688 223.722656 225.316406 223.472656 225.246094 C 223.226562 225.179688 222.972656 225.160156 222.71875 225.191406 C 222.460938 225.222656 222.222656 225.304688 221.996094 225.429688 Z M 222.054688 225.46875 " fill-opacity="1" fill-rule="nonzero"/><path fill="rgb(23.139954%, 27.059937%, 24.708557%)" d="M 228.960938 225.507812 C 228.738281 225.640625 228.550781 225.808594 228.398438 226.015625 C 228.246094 226.222656 228.140625 226.449219 228.078125 226.699219 C 228.015625 226.949219 228.007812 227.199219 228.046875 227.453125 C 228.085938 227.707031 228.171875 227.945312 228.304688 228.164062 C 228.441406 228.375 228.609375 228.554688 228.8125 228.699219 C 229.019531 228.847656 229.242188 228.949219 229.488281 229.003906 C 229.730469 229.0625 229.980469 229.074219 230.226562 229.035156 C 230.472656 228.996094 230.707031 228.910156 230.921875 228.78125 C 231.144531 228.648438 231.328125 228.476562 231.480469 228.265625 C 231.632812 228.058594 231.742188 227.828125 231.800781 227.574219 C 231.859375 227.324219 231.867188 227.070312 231.828125 226.816406 C 231.785156 226.558594 231.695312 226.324219 231.554688 226.105469 C 231.417969 225.894531 231.25 225.722656 231.046875 225.578125 C 230.84375 225.4375 230.621094 225.339844 230.378906 225.28125 C 230.136719 225.226562 229.890625 225.21875 229.648438 225.257812 C 229.402344 225.296875 229.171875 225.378906 228.960938 225.507812 Z M 228.960938 225.507812 " fill-opacity="1" fill-rule="nonzero"/><path fill="rgb(23.139954%, 27.059937%, 24.708557%)" d="M 164.179688 194.355469 C 164.003906 194.511719 163.8125 194.648438 163.605469 194.761719 C 163.394531 194.871094 163.179688 194.957031 162.949219 195.015625 C 162.71875 195.074219 162.488281 195.105469 162.25 195.105469 C 162.015625 195.105469 161.78125 195.078125 161.550781 195.023438 C 161.324219 194.96875 161.101562 194.886719 160.894531 194.777344 C 160.683594 194.667969 160.488281 194.535156 160.3125 194.378906 C 160.136719 194.222656 159.980469 194.046875 159.84375 193.855469 C 159.710938 193.660156 159.601562 193.453125 159.515625 193.230469 C 159.433594 193.011719 159.375 192.78125 159.347656 192.546875 C 159.320312 192.3125 159.320312 192.078125 159.347656 191.84375 C 159.378906 191.609375 159.433594 191.378906 159.519531 191.160156 C 159.601562 190.9375 159.714844 190.730469 159.847656 190.539062 C 159.984375 190.34375 160.140625 190.167969 160.316406 190.011719 C 160.496094 189.855469 160.6875 189.722656 160.898438 189.617188 C 161.109375 189.507812 161.328125 189.425781 161.558594 189.371094 C 161.785156 189.316406 162.019531 189.289062 162.257812 189.289062 C 162.988281 189.296875 163.628906 189.539062 164.179688 190.023438 C 164.363281 190.222656 164.578125 190.378906 164.828125 190.488281 C 165.074219 190.597656 165.335938 190.652344 165.609375 190.652344 C 165.878906 190.652344 166.140625 190.597656 166.386719 190.484375 C 166.636719 190.375 166.851562 190.21875 167.035156 190.015625 C 167.214844 189.8125 167.347656 189.582031 167.433594 189.324219 C 167.515625 189.0625 167.542969 188.796875 167.515625 188.527344 C 167.488281 188.257812 167.40625 188.003906 167.269531 187.769531 C 167.136719 187.53125 166.957031 187.332031 166.738281 187.171875 C 166.121094 186.613281 165.425781 186.183594 164.648438 185.886719 C 163.871094 185.585938 163.070312 185.4375 162.238281 185.441406 C 161.816406 185.472656 161.402344 185.542969 160.996094 185.652344 C 160.585938 185.761719 160.195312 185.90625 159.8125 186.089844 C 159.433594 186.273438 159.074219 186.492188 158.734375 186.742188 C 158.394531 186.992188 158.082031 187.273438 157.796875 187.582031 C 157.507812 187.894531 157.253906 188.226562 157.027344 188.585938 C 156.804688 188.941406 156.617188 189.316406 156.460938 189.710938 C 156.308594 190.105469 156.191406 190.507812 156.113281 190.921875 C 156.035156 191.339844 155.996094 191.757812 155.996094 192.179688 C 155.996094 192.601562 156.035156 193.019531 156.113281 193.433594 C 156.191406 193.847656 156.308594 194.253906 156.460938 194.648438 C 156.617188 195.039062 156.804688 195.414062 157.027344 195.773438 C 157.253906 196.128906 157.507812 196.464844 157.796875 196.773438 C 158.082031 197.082031 158.394531 197.363281 158.734375 197.613281 C 159.074219 197.867188 159.433594 198.082031 159.8125 198.265625 C 160.195312 198.449219 160.585938 198.597656 160.996094 198.707031 C 161.402344 198.816406 161.816406 198.886719 162.238281 198.917969 C 163.066406 198.921875 163.871094 198.777344 164.648438 198.480469 C 165.421875 198.1875 166.121094 197.761719 166.738281 197.203125 C 166.914062 197.03125 167.050781 196.832031 167.148438 196.605469 C 167.246094 196.378906 167.296875 196.140625 167.304688 195.894531 C 167.3125 195.648438 167.273438 195.410156 167.191406 195.179688 C 167.105469 194.945312 166.980469 194.738281 166.816406 194.554688 C 166.65625 194.371094 166.460938 194.222656 166.242188 194.113281 C 166.019531 194.003906 165.789062 193.9375 165.542969 193.917969 C 165.296875 193.898438 165.058594 193.921875 164.820312 193.996094 C 164.585938 194.066406 164.371094 194.179688 164.179688 194.335938 Z M 164.179688 194.355469 " fill-opacity="1" fill-rule="nonzero"/><path fill="rgb(23.139954%, 27.059937%, 24.708557%)" d="M 175.257812 185.441406 C 174.847656 185.484375 174.441406 185.566406 174.046875 185.683594 C 173.648438 185.800781 173.265625 185.957031 172.898438 186.144531 C 172.527344 186.332031 172.179688 186.554688 171.851562 186.808594 C 171.523438 187.058594 171.21875 187.339844 170.941406 187.648438 C 170.667969 187.957031 170.421875 188.289062 170.203125 188.640625 C 169.988281 188.996094 169.804688 189.367188 169.65625 189.753906 C 169.507812 190.140625 169.398438 190.539062 169.320312 190.945312 C 169.246094 191.351562 169.207031 191.765625 169.207031 192.179688 C 169.207031 192.59375 169.246094 193.003906 169.320312 193.414062 C 169.398438 193.820312 169.507812 194.21875 169.65625 194.605469 C 169.804688 194.992188 169.988281 195.363281 170.203125 195.714844 C 170.421875 196.070312 170.667969 196.402344 170.941406 196.707031 C 171.21875 197.015625 171.523438 197.296875 171.851562 197.550781 C 172.179688 197.804688 172.527344 198.023438 172.898438 198.214844 C 173.265625 198.402344 173.648438 198.554688 174.046875 198.671875 C 174.441406 198.792969 174.847656 198.875 175.257812 198.917969 C 175.671875 198.875 176.074219 198.792969 176.472656 198.671875 C 176.867188 198.554688 177.25 198.402344 177.621094 198.214844 C 177.988281 198.023438 178.335938 197.804688 178.664062 197.550781 C 178.992188 197.296875 179.296875 197.015625 179.574219 196.707031 C 179.851562 196.402344 180.097656 196.070312 180.3125 195.714844 C 180.527344 195.363281 180.710938 194.992188 180.859375 194.605469 C 181.007812 194.21875 181.121094 193.820312 181.195312 193.414062 C 181.269531 193.003906 181.308594 192.59375 181.308594 192.179688 C 181.308594 191.765625 181.269531 191.351562 181.195312 190.945312 C 181.121094 190.539062 181.007812 190.140625 180.859375 189.753906 C 180.710938 189.367188 180.527344 188.996094 180.3125 188.640625 C 180.097656 188.289062 179.851562 187.957031 179.574219 187.648438 C 179.296875 187.339844 178.992188 187.058594 178.664062 186.808594 C 178.335938 186.554688 177.988281 186.332031 177.621094 186.144531 C 177.25 185.957031 176.867188 185.800781 176.472656 185.683594 C 176.074219 185.566406 175.671875 185.484375 175.257812 185.441406 Z M 175.257812 195.066406 C 174.9375 194.984375 174.640625 194.851562 174.367188 194.667969 C 174.089844 194.488281 173.851562 194.265625 173.652344 194.003906 C 173.449219 193.742188 173.292969 193.457031 173.1875 193.144531 C 173.082031 192.832031 173.027344 192.507812 173.027344 192.179688 C 173.027344 191.847656 173.082031 191.527344 173.1875 191.214844 C 173.292969 190.902344 173.449219 190.613281 173.652344 190.355469 C 173.851562 190.09375 174.089844 189.871094 174.367188 189.6875 C 174.640625 189.507812 174.9375 189.375 175.257812 189.289062 C 175.578125 189.375 175.875 189.507812 176.148438 189.6875 C 176.425781 189.871094 176.664062 190.09375 176.867188 190.355469 C 177.066406 190.613281 177.222656 190.902344 177.328125 191.214844 C 177.433594 191.527344 177.488281 191.847656 177.488281 192.179688 C 177.488281 192.507812 177.433594 192.832031 177.328125 193.144531 C 177.222656 193.457031 177.066406 193.742188 176.867188 194.003906 C 176.664062 194.265625 176.425781 194.488281 176.148438 194.667969 C 175.875 194.851562 175.578125 194.984375 175.257812 195.066406 Z M 175.257812 195.066406 " fill-opacity="1" fill-rule="nonzero"/><path fill="rgb(23.139954%, 27.059937%, 24.708557%)" d="M 187.796875 185.441406 L 186.085938 185.441406 C 185.832031 185.441406 185.585938 185.488281 185.351562 185.585938 C 185.117188 185.683594 184.90625 185.824219 184.726562 186.003906 C 184.546875 186.183594 184.40625 186.394531 184.308594 186.628906 C 184.210938 186.863281 184.164062 187.109375 184.164062 187.367188 L 184.164062 196.992188 C 184.164062 197.246094 184.210938 197.492188 184.308594 197.730469 C 184.40625 197.964844 184.546875 198.171875 184.726562 198.355469 C 184.90625 198.535156 185.117188 198.671875 185.351562 198.769531 C 185.585938 198.867188 185.832031 198.917969 186.085938 198.917969 L 187.796875 198.917969 C 188.261719 198.953125 188.722656 198.941406 189.183594 198.878906 C 189.644531 198.820312 190.097656 198.710938 190.535156 198.558594 C 190.972656 198.40625 191.390625 198.207031 191.789062 197.96875 C 192.1875 197.730469 192.558594 197.449219 192.898438 197.132812 C 193.238281 196.816406 193.542969 196.46875 193.8125 196.089844 C 194.082031 195.710938 194.308594 195.308594 194.496094 194.882812 C 194.679688 194.457031 194.820312 194.015625 194.917969 193.558594 C 195.011719 193.105469 195.058594 192.644531 195.058594 192.179688 C 195.058594 191.714844 195.011719 191.253906 194.917969 190.796875 C 194.820312 190.34375 194.679688 189.902344 194.496094 189.476562 C 194.308594 189.050781 194.082031 188.644531 193.8125 188.265625 C 193.542969 187.886719 193.238281 187.539062 192.898438 187.222656 C 192.558594 186.90625 192.1875 186.628906 191.789062 186.390625 C 191.390625 186.148438 190.972656 185.953125 190.535156 185.796875 C 190.097656 185.644531 189.644531 185.539062 189.183594 185.476562 C 188.722656 185.417969 188.261719 185.40625 187.796875 185.441406 Z M 188.011719 195.066406 L 188.011719 189.289062 C 188.394531 189.289062 188.761719 189.363281 189.113281 189.511719 C 189.46875 189.65625 189.78125 189.867188 190.050781 190.136719 C 190.320312 190.40625 190.53125 190.71875 190.675781 191.074219 C 190.820312 191.425781 190.894531 191.796875 190.894531 192.179688 C 190.894531 192.5625 190.820312 192.929688 190.675781 193.285156 C 190.53125 193.636719 190.320312 193.949219 190.050781 194.222656 C 189.78125 194.492188 189.46875 194.699219 189.113281 194.847656 C 188.761719 194.992188 188.394531 195.066406 188.011719 195.066406 Z M 188.011719 195.066406 " fill-opacity="1" fill-rule="nonzero"/><path fill="rgb(23.139954%, 27.059937%, 24.708557%)" d="M 204.128906 189.289062 C 204.382812 189.289062 204.628906 189.242188 204.863281 189.144531 C 205.101562 189.046875 205.308594 188.90625 205.488281 188.726562 C 205.667969 188.546875 205.808594 188.339844 205.90625 188.101562 C 206.003906 187.867188 206.050781 187.621094 206.050781 187.367188 C 206.050781 187.109375 206.003906 186.863281 205.90625 186.628906 C 205.808594 186.394531 205.667969 186.183594 205.488281 186.003906 C 205.308594 185.824219 205.101562 185.683594 204.863281 185.585938 C 204.628906 185.488281 204.382812 185.441406 204.128906 185.441406 L 199.511719 185.441406 C 199.257812 185.441406 199.011719 185.488281 198.777344 185.585938 C 198.539062 185.683594 198.332031 185.824219 198.152344 186.003906 C 197.972656 186.183594 197.832031 186.394531 197.734375 186.628906 C 197.636719 186.863281 197.589844 187.109375 197.589844 187.367188 L 197.589844 196.992188 C 197.589844 197.246094 197.636719 197.492188 197.734375 197.730469 C 197.832031 197.964844 197.972656 198.171875 198.152344 198.355469 C 198.332031 198.535156 198.539062 198.671875 198.777344 198.769531 C 199.011719 198.867188 199.257812 198.917969 199.511719 198.917969 L 204.128906 198.917969 C 204.382812 198.917969 204.628906 198.867188 204.863281 198.769531 C 205.101562 198.671875 205.308594 198.535156 205.488281 198.355469 C 205.667969 198.171875 205.808594 197.964844 205.90625 197.730469 C 206.003906 197.492188 206.050781 197.246094 206.050781 196.992188 C 206.050781 196.738281 206.003906 196.492188 205.90625 196.253906 C 205.808594 196.019531 205.667969 195.8125 205.488281 195.628906 C 205.308594 195.449219 205.101562 195.3125 204.863281 195.214844 C 204.628906 195.117188 204.382812 195.066406 204.128906 195.066406 L 201.4375 195.066406 L 201.4375 194.105469 L 204.128906 194.105469 C 204.382812 194.105469 204.628906 194.054688 204.863281 193.957031 C 205.101562 193.859375 205.308594 193.722656 205.488281 193.539062 C 205.667969 193.359375 205.808594 193.152344 205.90625 192.914062 C 206.003906 192.679688 206.050781 192.433594 206.050781 192.179688 C 206.050781 191.921875 206.003906 191.679688 205.90625 191.441406 C 205.808594 191.207031 205.667969 190.996094 205.488281 190.816406 C 205.308594 190.636719 205.101562 190.496094 204.863281 190.398438 C 204.628906 190.300781 204.382812 190.253906 204.128906 190.253906 L 201.4375 190.253906 L 201.4375 189.289062 Z M 204.128906 189.289062 " fill-opacity="1" fill-rule="nonzero"/><path fill="rgb(23.139954%, 27.059937%, 24.708557%)" d="M 147.65625 192.179688 L 155.851562 183.285156 C 156.027344 183.09375 156.160156 182.878906 156.25 182.636719 C 156.339844 182.394531 156.378906 182.144531 156.371094 181.886719 C 156.363281 181.628906 156.304688 181.382812 156.195312 181.148438 C 156.089844 180.914062 155.941406 180.707031 155.753906 180.53125 C 155.566406 180.355469 155.351562 180.222656 155.109375 180.132812 C 154.867188 180.042969 154.617188 180 154.359375 180.007812 C 154.101562 180.019531 153.855469 180.078125 153.621094 180.183594 C 153.386719 180.289062 153.179688 180.4375 153.003906 180.625 L 143.5625 190.890625 C 143.398438 191.066406 143.273438 191.265625 143.1875 191.492188 C 143.101562 191.714844 143.054688 191.949219 143.054688 192.1875 C 143.054688 192.429688 143.101562 192.660156 143.1875 192.886719 C 143.273438 193.109375 143.398438 193.3125 143.5625 193.488281 L 153.003906 203.730469 C 153.386719 204.152344 153.859375 204.363281 154.429688 204.367188 C 154.8125 204.371094 155.164062 204.265625 155.488281 204.058594 C 155.808594 203.847656 156.046875 203.570312 156.203125 203.21875 C 156.355469 202.867188 156.402344 202.5 156.339844 202.121094 C 156.273438 201.742188 156.113281 201.414062 155.851562 201.132812 Z M 147.65625 192.179688 " fill-opacity="1" fill-rule="nonzero"/><path fill="rgb(23.139954%, 27.059937%, 24.708557%)" d="M 220.363281 190.890625 L 210.996094 180.625 C 210.824219 180.4375 210.621094 180.289062 210.390625 180.179688 C 210.160156 180.070312 209.914062 180.011719 209.660156 180 C 209.40625 179.988281 209.15625 180.027344 208.917969 180.113281 C 208.675781 180.199219 208.460938 180.328125 208.273438 180.503906 C 208.085938 180.675781 207.9375 180.875 207.828125 181.109375 C 207.71875 181.339844 207.660156 181.582031 207.648438 181.839844 C 207.636719 182.09375 207.671875 182.339844 207.761719 182.582031 C 207.847656 182.820312 207.976562 183.035156 208.148438 183.226562 L 216.324219 192.179688 L 208.148438 201.09375 C 207.988281 201.277344 207.867188 201.488281 207.789062 201.71875 C 207.707031 201.953125 207.671875 202.191406 207.683594 202.433594 C 207.695312 202.679688 207.75 202.914062 207.851562 203.140625 C 207.949219 203.363281 208.089844 203.558594 208.261719 203.730469 C 208.445312 203.914062 208.652344 204.054688 208.890625 204.152344 C 209.125 204.25 209.371094 204.300781 209.628906 204.300781 C 209.886719 204.300781 210.132812 204.25 210.367188 204.152344 C 210.605469 204.054688 210.8125 203.914062 210.996094 203.730469 L 220.363281 193.527344 C 220.53125 193.347656 220.660156 193.144531 220.75 192.917969 C 220.839844 192.6875 220.882812 192.453125 220.882812 192.207031 C 220.882812 191.960938 220.839844 191.726562 220.75 191.5 C 220.660156 191.269531 220.53125 191.066406 220.363281 190.890625 Z M 220.363281 190.890625 " fill-opacity="1" fill-rule="nonzero"/></svg>